<?xml version="1.0" standalone="no"?>
<!DOCTYPE svg PUBLIC "-//W3C//DTD SVG 20010904//EN"
 "http://www.w3.org/TR/2001/REC-SVG-20010904/DTD/svg10.dtd">
<svg version="1.0" xmlns="http://www.w3.org/2000/svg"
 width="340.000000pt" height="340.000000pt" viewBox="0 0 340.000000 340.000000"
 preserveAspectRatio="xMidYMid meet">
<metadata>
Created by potrace 1.12, written by Peter Selinger 2001-2015
</metadata>
<g transform="translate(-18.000000,360.000000) scale(0.100000,-0.100000)"
fill="#000000" stroke="none">
<path d="M180 3310 l0 -290 290 0 290 0 0 290 0 290 -290 0 -290 0 0 -290z
m500 0 l0 -210 -210 0 -210 0 0 210 0 210 210 0 210 0 0 -210z"/>
<path d="M350 3310 l0 -120 120 0 120 0 0 120 0 120 -120 0 -120 0 0 -120z"/>
<path d="M840 3560 l0 -40 45 0 45 0 0 -45 0 -45 40 0 40 0 0 -40 0 -40 -40 0
-40 0 0 -40 0 -40 -45 0 -45 0 0 -125 0 -125 45 0 45 0 0 85 0 85 80 0 80 0 0
40 0 40 45 0 45 0 0 -40 0 -40 40 0 40 0 0 120 0 120 80 0 80 0 0 -40 0 -40
45 0 45 0 0 -40 0 -40 -45 0 -45 0 0 -40 0 -40 -40 0 -40 0 0 -125 0 -125 85
0 85 0 0 -45 0 -45 -85 0 -85 0 0 -40 0 -40 40 0 40 0 0 -40 0 -40 -80 0 -80
0 0 40 0 40 -40 0 -40 0 0 40 0 40 40 0 40 0 0 45 0 45 -40 0 -40 0 0 40 0 40
40 0 40 0 0 40 0 40 -40 0 -40 0 0 -40 0 -40 -45 0 -45 0 0 40 0 40 -40 0 -40
0 0 -40 0 -40 40 0 40 0 0 -85 0 -85 -40 0 -40 0 0 45 0 45 -40 0 -40 0 0 -45
0 -45 40 0 40 0 0 -40 0 -40 85 0 85 0 0 -80 0 -80 -45 0 -45 0 0 40 0 40
-125 0 -125 0 0 125 0 125 -290 0 -290 0 0 -45 0 -45 -40 0 -40 0 0 -40 0 -40
40 0 40 0 0 40 0 40 45 0 45 0 0 -80 0 -80 40 0 40 0 0 80 0 80 40 0 40 0 0
-80 0 -80 40 0 40 0 0 40 0 40 45 0 45 0 0 -40 0 -40 80 0 80 0 0 -40 0 -40
125 0 125 0 0 -85 0 -85 -40 0 -40 0 0 40 0 40 -125 0 -125 0 0 45 0 45 -40 0
-40 0 0 -45 0 -45 40 0 40 0 0 -40 0 -40 -40 0 -40 0 0 -40 0 -40 40 0 40 0 0
-45 0 -45 -125 0 -125 0 0 45 0 45 40 0 40 0 0 40 0 40 -40 0 -40 0 0 40 0 40
-40 0 -40 0 0 45 0 45 -40 0 -40 0 0 -45 0 -45 40 0 40 0 0 -40 0 -40 40 0 40
0 0 -40 0 -40 -40 0 -40 0 0 -45 0 -45 -40 0 -40 0 0 85 0 85 -45 0 -45 0 0
-125 0 -125 -40 0 -40 0 0 -40 0 -40 40 0 40 0 0 -40 0 -40 -40 0 -40 0 0 -45
0 -45 40 0 40 0 0 -80 0 -80 -40 0 -40 0 0 -40 0 -40 40 0 40 0 0 -45 0 -45
-40 0 -40 0 0 -165 0 -165 40 0 40 0 0 -40 0 -40 -40 0 -40 0 0 -165 0 -165
40 0 40 0 0 125 0 125 45 0 45 0 0 -45 0 -45 80 0 80 0 0 -40 0 -40 -40 0 -40
0 0 -40 0 -40 205 0 205 0 0 -290 0 -290 85 0 85 0 0 -45 0 -45 40 0 40 0 0
85 0 85 45 0 45 0 0 -40 0 -40 40 0 40 0 0 -45 0 -45 40 0 40 0 0 45 0 45 -40
0 -40 0 0 40 0 40 80 0 80 0 0 -85 0 -85 85 0 85 0 0 45 0 45 40 0 40 0 0 -45
0 -45 45 0 45 0 0 125 0 125 120 0 120 0 0 -40 0 -40 45 0 45 0 0 40 0 40 40
0 40 0 0 -40 0 -40 40 0 40 0 0 85 0 85 -40 0 -40 0 0 80 0 80 40 0 40 0 0
-40 0 -40 45 0 45 0 0 -40 0 -40 120 0 120 0 0 40 0 40 -40 0 -40 0 0 40 0 40
40 0 40 0 0 40 0 40 -40 0 -40 0 0 45 0 45 40 0 40 0 0 40 0 40 85 0 85 0 0
40 0 40 -40 0 -40 0 0 85 0 85 125 0 125 0 0 -40 0 -40 -45 0 -45 0 0 -45 0
-45 45 0 45 0 0 -40 0 -40 -45 0 -45 0 0 -125 0 -125 -40 0 -40 0 0 85 0 85
-40 0 -40 0 0 -85 0 -85 40 0 40 0 0 -40 0 -40 -40 0 -40 0 0 -40 0 -40 80 0
80 0 0 -45 0 -45 -40 0 -40 0 0 -40 0 -40 -40 0 -40 0 0 -40 0 -40 -45 0 -45
0 0 -45 0 -45 45 0 45 0 0 45 0 45 205 0 205 0 0 -45 0 -45 125 0 125 0 0 45
0 45 -40 0 -40 0 0 40 0 40 40 0 40 0 0 40 0 40 -80 0 -80 0 0 45 0 45 40 0
40 0 0 40 0 40 80 0 80 0 0 -165 0 -165 45 0 45 0 0 80 0 80 40 0 40 0 0 45 0
45 -40 0 -40 0 0 40 0 40 -45 0 -45 0 0 40 0 40 45 0 45 0 0 40 0 40 40 0 40
0 0 45 0 45 -85 0 -85 0 0 40 0 40 -80 0 -80 0 0 40 0 40 40 0 40 0 0 85 0 85
40 0 40 0 0 40 0 40 45 0 45 0 0 -80 0 -80 -45 0 -45 0 0 -45 0 -45 45 0 45 0
0 -40 0 -40 40 0 40 0 0 40 0 40 -40 0 -40 0 0 45 0 45 40 0 40 0 0 165 0 165
-40 0 -40 0 0 40 0 40 -45 0 -45 0 0 -40 0 -40 45 0 45 0 0 -45 0 -45 -45 0
-45 0 0 -40 0 -40 -40 0 -40 0 0 40 0 40 -40 0 -40 0 0 45 0 45 40 0 40 0 0
40 0 40 -40 0 -40 0 0 40 0 40 80 0 80 0 0 85 0 85 85 0 85 0 0 125 0 125 -40
0 -40 0 0 40 0 40 40 0 40 0 0 80 0 80 -165 0 -165 0 0 -40 0 -40 -40 0 -40 0
0 40 0 40 -45 0 -45 0 0 45 0 45 -40 0 -40 0 0 40 0 40 -40 0 -40 0 0 40 0 40
40 0 40 0 0 45 0 45 -40 0 -40 0 0 40 0 40 40 0 40 0 0 80 0 80 -40 0 -40 0 0
45 0 45 -45 0 -45 0 0 -45 0 -45 -40 0 -40 0 0 45 0 45 -85 0 -85 0 0 -45 0
-45 -40 0 -40 0 0 -40 0 -40 -165 0 -165 0 0 40 0 40 -165 0 -165 0 0 85 0 85
40 0 40 0 0 165 0 165 40 0 40 0 0 -40 0 -40 45 0 45 0 0 -40 0 -40 40 0 40 0
0 -125 0 -125 40 0 40 0 0 -45 0 -45 45 0 45 0 0 45 0 45 80 0 80 0 0 40 0 40
40 0 40 0 0 40 0 40 45 0 45 0 0 -40 0 -40 40 0 40 0 0 85 0 85 40 0 40 0 0
40 0 40 45 0 45 0 0 80 0 80 -45 0 -45 0 0 45 0 45 45 0 45 0 0 40 0 40 -45 0
-45 0 0 -40 0 -40 -40 0 -40 0 0 40 0 40 -40 0 -40 0 0 -85 0 -85 40 0 40 0 0
-40 0 -40 -40 0 -40 0 0 -40 0 -40 40 0 40 0 0 -40 0 -40 -205 0 -205 0 0 40
0 40 120 0 120 0 0 40 0 40 -40 0 -40 0 0 40 0 40 40 0 40 0 0 45 0 45 -40 0
-40 0 0 40 0 40 -165 0 -165 0 0 -40 0 -40 -40 0 -40 0 0 -45 0 -45 -125 0
-125 0 0 45 0 45 -40 0 -40 0 0 -45 0 -45 40 0 40 0 0 -40 0 -40 -165 0 -165
0 0 40 0 40 80 0 80 0 0 45 0 45 -40 0 -40 0 0 40 0 40 -40 0 -40 0 0 -40 0
-40 -125 0 -125 0 0 -45 0 -45 -40 0 -40 0 0 -40 0 -40 -45 0 -45 0 0 85 0 85
45 0 45 0 0 40 0 40 -45 0 -45 0 0 -40 0 -40 -80 0 -80 0 0 40 0 40 -45 0 -45
0 0 -40z m1410 -170 l0 -40 45 0 45 0 0 40 0 40 40 0 40 0 0 -40 0 -40 -40 0
-40 0 0 -40 0 -40 -45 0 -45 0 0 -40 0 -40 45 0 45 0 0 -125 0 -125 -45 0 -45
0 0 125 0 125 -40 0 -40 0 0 80 0 80 -40 0 -40 0 0 40 0 40 80 0 80 0 0 -40z
m-1160 -80 l0 -40 -40 0 -40 0 0 40 0 40 40 0 40 0 0 -40z m500 -165 l0 -45
40 0 40 0 0 45 0 45 85 0 85 0 0 -85 0 -85 -40 0 -40 0 0 -125 0 -125 120 0
120 0 0 -80 0 -80 -80 0 -80 0 0 -85 0 -85 -40 0 -40 0 0 40 0 40 -125 0 -125
0 0 -40 0 -40 -85 0 -85 0 0 -40 0 -40 40 0 40 0 0 -85 0 -85 -40 0 -40 0 0
-40 0 -40 -40 0 -40 0 0 -40 0 -40 40 0 40 0 0 -45 0 -45 40 0 40 0 0 45 0 45
45 0 45 0 0 165 0 165 40 0 40 0 0 40 0 40 40 0 40 0 0 -40 0 -40 45 0 45 0 0
-45 0 -45 -45 0 -45 0 0 -40 0 -40 -40 0 -40 0 0 -40 0 -40 40 0 40 0 0 -40 0
-40 -40 0 -40 0 0 -45 0 -45 40 0 40 0 0 -40 0 -40 45 0 45 0 0 -40 0 -40 40
0 40 0 0 -40 0 -40 -85 0 -85 0 0 -45 0 -45 125 0 125 0 0 45 0 45 40 0 40 0
0 80 0 80 -40 0 -40 0 0 40 0 40 -40 0 -40 0 0 45 0 45 -40 0 -40 0 0 80 0 80
80 0 80 0 0 40 0 40 -40 0 -40 0 0 45 0 45 40 0 40 0 0 40 0 40 40 0 40 0 0
40 0 40 125 0 125 0 0 -40 0 -40 -80 0 -80 0 0 -40 0 -40 -45 0 -45 0 0 -45 0
-45 45 0 45 0 0 -40 0 -40 40 0 40 0 0 85 0 85 40 0 40 0 0 -45 0 -45 45 0 45
0 0 45 0 45 40 0 40 0 0 -45 0 -45 -40 0 -40 0 0 -40 0 -40 40 0 40 0 0 -40 0
-40 80 0 80 0 0 -40 0 -40 -40 0 -40 0 0 -85 0 -85 40 0 40 0 0 40 0 40 85 0
85 0 0 45 0 45 -40 0 -40 0 0 80 0 80 -85 0 -85 0 0 85 0 85 40 0 40 0 0 40 0
40 -40 0 -40 0 0 40 0 40 165 0 165 0 0 45 0 45 45 0 45 0 0 -45 0 -45 -45 0
-45 0 0 -40 0 -40 45 0 45 0 0 -40 0 -40 40 0 40 0 0 -45 0 -45 40 0 40 0 0
-40 0 -40 -40 0 -40 0 0 -40 0 -40 85 0 85 0 0 -125 0 -125 40 0 40 0 0 165 0
165 40 0 40 0 0 -40 0 -40 40 0 40 0 0 40 0 40 45 0 45 0 0 -40 0 -40 -45 0
-45 0 0 -40 0 -40 45 0 45 0 0 -85 0 -85 -125 0 -125 0 0 -40 0 -40 40 0 40 0
0 -40 0 -40 -40 0 -40 0 0 -45 0 -45 -40 0 -40 0 0 45 0 45 -45 0 -45 0 0 -85
0 -85 45 0 45 0 0 -40 0 -40 -85 0 -85 0 0 -45 0 -45 -40 0 -40 0 0 45 0 45
-45 0 -45 0 0 -45 0 -45 -40 0 -40 0 0 45 0 45 -40 0 -40 0 0 -85 0 -85 -45 0
-45 0 0 -40 0 -40 -40 0 -40 0 0 40 0 40 40 0 40 0 0 85 0 85 45 0 45 0 0 80
0 80 -45 0 -45 0 0 -40 0 -40 -40 0 -40 0 0 -40 0 -40 -40 0 -40 0 0 -125 0
-125 -40 0 -40 0 0 -40 0 -40 120 0 120 0 0 -45 0 -45 -40 0 -40 0 0 -80 0
-80 -125 0 -125 0 0 -45 0 -45 -80 0 -80 0 0 45 0 45 -85 0 -85 0 0 -85 0 -85
85 0 85 0 0 -40 0 -40 -85 0 -85 0 0 -40 0 -40 -125 0 -125 0 0 -85 0 -85 -80
0 -80 0 0 85 0 85 80 0 80 0 0 40 0 40 -80 0 -80 0 0 80 0 80 40 0 40 0 0 85
0 85 -85 0 -85 0 0 40 0 40 -40 0 -40 0 0 45 0 45 125 0 125 0 0 40 0 40 -40
0 -40 0 0 40 0 40 40 0 40 0 0 -40 0 -40 85 0 85 0 0 -40 0 -40 40 0 40 0 0
80 0 80 -40 0 -40 0 0 40 0 40 -45 0 -45 0 0 45 0 45 -125 0 -125 0 0 -45 0
-45 -40 0 -40 0 0 -40 0 -40 -40 0 -40 0 0 40 0 40 -40 0 -40 0 0 -80 0 -80
40 0 40 0 0 -125 0 -125 40 0 40 0 0 -40 0 -40 40 0 40 0 0 -45 0 -45 -80 0
-80 0 0 45 0 45 -40 0 -40 0 0 80 0 80 -45 0 -45 0 0 -80 0 -80 -125 0 -125 0
0 40 0 40 85 0 85 0 0 40 0 40 -40 0 -40 0 0 45 0 45 -125 0 -125 0 0 -45 0
-45 40 0 40 0 0 -40 0 -40 -85 0 -85 0 0 125 0 125 -40 0 -40 0 0 -40 0 -40
-40 0 -40 0 0 40 0 40 40 0 40 0 0 40 0 40 -125 0 -125 0 0 40 0 40 85 0 85 0
0 45 0 45 -85 0 -85 0 0 80 0 80 85 0 85 0 0 -40 0 -40 80 0 80 0 0 40 0 40
-40 0 -40 0 0 165 0 165 40 0 40 0 0 -40 0 -40 85 0 85 0 0 40 0 40 -40 0 -40
0 0 45 0 45 -45 0 -45 0 0 40 0 40 -40 0 -40 0 0 -40 0 -40 -40 0 -40 0 0 40
0 40 40 0 40 0 0 40 0 40 165 0 165 0 0 -40 0 -40 -80 0 -80 0 0 -40 0 -40 40
0 40 0 0 -45 0 -45 40 0 40 0 0 -40 0 -40 -40 0 -40 0 0 -40 0 -40 -40 0 -40
0 0 -40 0 -40 40 0 40 0 0 -45 0 -45 40 0 40 0 0 85 0 85 45 0 45 0 0 40 0 40
40 0 40 0 0 40 0 40 40 0 40 0 0 45 0 45 -40 0 -40 0 0 40 0 40 -40 0 -40 0 0
80 0 80 -45 0 -45 0 0 45 0 45 -40 0 -40 0 0 40 0 40 40 0 40 0 0 -40 0 -40
45 0 45 0 0 40 0 40 40 0 40 0 0 -40 0 -40 -40 0 -40 0 0 -45 0 -45 125 0 125
0 0 85 0 85 80 0 80 0 0 85 0 85 210 0 210 0 0 40 0 40 -45 0 -45 0 0 40 0 40
-40 0 -40 0 0 85 0 85 -40 0 -40 0 0 40 0 40 -45 0 -45 0 0 85 0 85 85 0 85 0
0 -45z m910 -85 l0 -40 -40 0 -40 0 0 40 0 40 40 0 40 0 0 -40z m-1740 -250
l0 -40 -40 0 -40 0 0 40 0 40 40 0 40 0 0 -40z m1910 -120 l0 -80 -85 0 -85 0
0 40 0 40 40 0 40 0 0 40 0 40 45 0 45 0 0 -80z m160 40 l0 -40 -40 0 -40 0 0
40 0 40 40 0 40 0 0 -40z m-410 -125 l0 -85 -40 0 -40 0 0 45 0 45 -45 0 -45
0 0 40 0 40 85 0 85 0 0 -85z m-1990 -705 l0 -40 -40 0 -40 0 0 40 0 40 40 0
40 0 0 -40z m-80 -160 l0 -40 -45 0 -45 0 0 40 0 40 45 0 45 0 0 -40z m2820
-420 l0 -40 40 0 40 0 0 -40 0 -40 -40 0 -40 0 0 -40 0 -40 -85 0 -85 0 0 40
0 40 -40 0 -40 0 0 40 0 40 40 0 40 0 0 -40 0 -40 85 0 85 0 0 40 0 40 -45 0
-45 0 0 40 0 40 45 0 45 0 0 -40z m0 -575 l0 -125 -125 0 -125 0 0 125 0 125
125 0 125 0 0 -125z m-2160 -45 l0 -80 40 0 40 0 0 80 0 80 45 0 45 0 0 -40 0
-40 40 0 40 0 0 -125 0 -125 -40 0 -40 0 0 85 0 85 -45 0 -45 0 0 -40 0 -40
-40 0 -40 0 0 -45 0 -45 40 0 40 0 0 -40 0 -40 -40 0 -40 0 0 40 0 40 -40 0
-40 0 0 45 0 45 40 0 40 0 0 40 0 40 -40 0 -40 0 0 80 0 80 40 0 40 0 0 -80z
m2320 40 l0 -40 -40 0 -40 0 0 40 0 40 40 0 40 0 0 -40z m-1910 -80 l0 -40
-40 0 -40 0 0 40 0 40 40 0 40 0 0 -40z m1000 0 l0 -40 -40 0 -40 0 0 40 0 40
40 0 40 0 0 -40z m-1000 -165 l0 -45 -40 0 -40 0 0 45 0 45 40 0 40 0 0 -45z
m670 0 l0 -45 -45 0 -45 0 0 45 0 45 45 0 45 0 0 -45z m990 0 l0 -45 -40 0
-40 0 0 45 0 45 40 0 40 0 0 -45z m90 -165 l0 -40 -45 0 -45 0 0 40 0 40 45 0
45 0 0 -40z"/>
<path d="M1510 3060 l0 -40 40 0 40 0 0 40 0 40 -40 0 -40 0 0 -40z"/>
<path d="M1670 3060 l0 -40 45 0 45 0 0 40 0 40 -45 0 -45 0 0 -40z"/>
<path d="M2670 2400 l0 -40 40 0 40 0 0 -45 0 -45 -40 0 -40 0 0 -40 0 -40
165 0 165 0 0 40 0 40 -40 0 -40 0 0 45 0 45 -45 0 -45 0 0 40 0 40 -80 0 -80
0 0 -40z"/>
<path d="M1590 2315 l0 -45 40 0 40 0 0 45 0 45 -40 0 -40 0 0 -45z"/>
<path d="M1180 2230 l0 -40 -45 0 -45 0 0 -80 0 -80 45 0 45 0 0 40 0 40 40 0
40 0 0 80 0 80 -40 0 -40 0 0 -40z"/>
<path d="M2170 2150 l0 -40 40 0 40 0 0 40 0 40 -40 0 -40 0 0 -40z"/>
<path d="M1840 2070 l0 -40 40 0 40 0 0 -45 0 -45 40 0 40 0 0 -40 0 -40 45 0
45 0 0 -40 0 -40 40 0 40 0 0 -40 0 -40 -85 0 -85 0 0 -45 0 -45 -40 0 -40 0
0 -40 0 -40 -125 0 -125 0 0 40 0 40 -40 0 -40 0 0 85 0 85 -40 0 -40 0 0 -40
0 -40 -45 0 -45 0 0 80 0 80 -40 0 -40 0 0 40 0 40 -40 0 -40 0 0 -80 0 -80
-40 0 -40 0 0 80 0 80 -45 0 -45 0 0 -80 0 -80 -80 0 -80 0 0 -40 0 -40 80 0
80 0 0 -85 0 -85 45 0 45 0 0 40 0 40 80 0 80 0 0 -80 0 -80 -40 0 -40 0 0
-45 0 -45 40 0 40 0 0 45 0 45 40 0 40 0 0 80 0 80 85 0 85 0 0 -40 0 -40 40
0 40 0 0 -40 0 -40 85 0 85 0 0 -85 0 -85 40 0 40 0 0 -80 0 -80 -40 0 -40 0
0 -85 0 -85 40 0 40 0 0 40 0 40 40 0 40 0 0 45 0 45 45 0 45 0 0 40 0 40 40
0 40 0 0 -40 0 -40 40 0 40 0 0 40 0 40 45 0 45 0 0 40 0 40 -45 0 -45 0 0
-40 0 -40 -40 0 -40 0 0 80 0 80 -40 0 -40 0 0 -80 0 -80 -45 0 -45 0 0 40 0
40 -40 0 -40 0 0 125 0 125 40 0 40 0 0 40 0 40 85 0 85 0 0 45 0 45 85 0 85
0 0 -45 0 -45 -45 0 -45 0 0 -40 0 -40 -80 0 -80 0 0 -40 0 -40 165 0 165 0 0
80 0 80 40 0 40 0 0 85 0 85 -40 0 -40 0 0 40 0 40 -165 0 -165 0 0 85 0 85
-45 0 -45 0 0 40 0 40 -80 0 -80 0 0 -40z m-500 -330 l0 -40 40 0 40 0 0 -45
0 -45 -40 0 -40 0 0 45 0 45 -40 0 -40 0 0 40 0 40 40 0 40 0 0 -40z"/>
<path d="M2830 2070 l0 -40 45 0 45 0 0 40 0 40 -45 0 -45 0 0 -40z"/>
<path d="M2170 1985 l0 -45 40 0 40 0 0 45 0 45 -40 0 -40 0 0 -45z"/>
<path d="M2340 1985 l0 -45 40 0 40 0 0 45 0 45 -40 0 -40 0 0 -45z"/>
<path d="M3000 1985 l0 -45 -85 0 -85 0 0 -40 0 -40 -125 0 -125 0 0 -80 0
-80 45 0 45 0 0 -45 0 -45 40 0 40 0 0 45 0 45 -40 0 -40 0 0 40 0 40 80 0 80
0 0 40 0 40 85 0 85 0 0 -40 0 -40 -40 0 -40 0 0 -40 0 -40 -45 0 -45 0 0 -45
0 -45 45 0 45 0 0 -40 0 -40 40 0 40 0 0 40 0 40 -40 0 -40 0 0 45 0 45 40 0
40 0 0 40 0 40 85 0 85 0 0 40 0 40 -85 0 -85 0 0 40 0 40 40 0 40 0 0 45 0
45 -40 0 -40 0 0 -45z"/>
<path d="M680 1570 l0 -40 40 0 40 0 0 40 0 40 -40 0 -40 0 0 -40z"/>
<path d="M930 1530 l0 -80 -45 0 -45 0 0 -45 0 -45 -40 0 -40 0 0 45 0 45 -40
0 -40 0 0 -45 0 -45 40 0 40 0 0 -40 0 -40 -85 0 -85 0 0 40 0 40 -40 0 -40 0
0 -40 0 -40 40 0 40 0 0 -40 0 -40 85 0 85 0 0 40 0 40 40 0 40 0 0 -40 0 -40
45 0 45 0 0 -40 0 -40 125 0 125 0 0 40 0 40 -125 0 -125 0 0 40 0 40 40 0 40
0 0 165 0 165 -40 0 -40 0 0 -80z m0 -210 l0 -40 -45 0 -45 0 0 40 0 40 45 0
45 0 0 -40z"/>
<path d="M2750 1490 l0 -40 40 0 40 0 0 40 0 40 -40 0 -40 0 0 -40z"/>
<path d="M1590 1075 l0 -45 40 0 40 0 0 -125 0 -125 45 0 45 0 0 -80 0 -80 80
0 80 0 0 40 0 40 -40 0 -40 0 0 85 0 85 -40 0 -40 0 0 80 0 80 -45 0 -45 0 0
45 0 45 -40 0 -40 0 0 -45z"/>
<path d="M2170 950 l0 -80 40 0 40 0 0 80 0 80 -40 0 -40 0 0 -80z"/>
<path d="M2340 990 l0 -40 40 0 40 0 0 40 0 40 -40 0 -40 0 0 -40z"/>
<path d="M3000 740 l0 -40 40 0 40 0 0 40 0 40 -40 0 -40 0 0 -40z"/>
<path d="M3000 3310 l0 -290 290 0 290 0 0 290 0 290 -290 0 -290 0 0 -290z
m500 0 l0 -210 -210 0 -210 0 0 210 0 210 210 0 210 0 0 -210z"/>
<path d="M3170 3310 l0 -120 120 0 120 0 0 120 0 120 -120 0 -120 0 0 -120z"/>
<path d="M2000 3060 l0 -40 45 0 45 0 0 40 0 40 -45 0 -45 0 0 -40z"/>
<path d="M2830 3060 l0 -40 45 0 45 0 0 40 0 40 -45 0 -45 0 0 -40z"/>
<path d="M3080 2855 l0 -85 45 0 45 0 0 40 0 40 40 0 40 0 0 45 0 45 -85 0
-85 0 0 -85z"/>
<path d="M3500 2895 l0 -45 40 0 40 0 0 45 0 45 -40 0 -40 0 0 -45z"/>
<path d="M3330 2810 l0 -40 40 0 40 0 0 -40 0 -40 45 0 45 0 0 40 0 40 -45 0
-45 0 0 40 0 40 -40 0 -40 0 0 -40z"/>
<path d="M3080 2605 l0 -85 45 0 45 0 0 -80 0 -80 80 0 80 0 0 40 0 40 -40 0
-40 0 0 40 0 40 125 0 125 0 0 -40 0 -40 -45 0 -45 0 0 -40 0 -40 45 0 45 0 0
40 0 40 40 0 40 0 0 40 0 40 -40 0 -40 0 0 45 0 45 -85 0 -85 0 0 40 0 40 -40
0 -40 0 0 -85 0 -85 -40 0 -40 0 0 85 0 85 -45 0 -45 0 0 -85z"/>
<path d="M3500 1655 l0 -45 40 0 40 0 0 45 0 45 -40 0 -40 0 0 -45z"/>
<path d="M180 490 l0 -290 290 0 290 0 0 290 0 290 -290 0 -290 0 0 -290z
m500 5 l0 -205 -210 0 -210 0 0 205 0 205 210 0 210 0 0 -205z"/>
<path d="M350 495 l0 -125 120 0 120 0 0 125 0 125 -120 0 -120 0 0 -125z"/>
<path d="M2420 410 l0 -40 -40 0 -40 0 0 -40 0 -40 -85 0 -85 0 0 -45 0 -45
85 0 85 0 0 45 0 45 40 0 40 0 0 -45 0 -45 40 0 40 0 0 85 0 85 40 0 40 0 0
40 0 40 -80 0 -80 0 0 -40z"/>
<path d="M1840 245 l0 -45 125 0 125 0 0 45 0 45 -125 0 -125 0 0 -45z"/>
</g>
</svg>
